<svg width="224" height="253" viewBox="0 0 224 253" fill="none" xmlns="http://www.w3.org/2000/svg">
<g opacity="0.5">
<rect opacity="0.1" x="15" width="193" height="193" rx="96.5" fill="#FF6B59"/>
<rect opacity="0.2" x="28.4795" y="13.4794" width="166.041" height="166.041" rx="83.0206" fill="#FF6B59"/>
<rect opacity="0.3" x="41.9585" y="26.9586" width="139.083" height="139.083" rx="69.5413" fill="#FF6B59"/>
<rect opacity="0.5" x="54.8252" y="39.8253" width="113.349" height="113.349" rx="56.6746" fill="#FF6B59"/>
</g>
<g filter="url(#filter0_d_1_150)">
<rect x="66" y="51" width="92" height="92" rx="46" fill="url(#paint0_linear_1_150)"/>
</g>
<path opacity="0.9" fill-rule="evenodd" clip-rule="evenodd" d="M107.714 85.6061C107.714 84.3845 108.166 83.2129 108.97 82.3491C109.773 81.4853 110.863 81 112 81C113.137 81 114.227 81.4853 115.03 82.3491C115.834 83.2129 116.286 84.3845 116.286 85.6061V96.1111C116.286 97.3327 115.834 98.5043 115.03 99.3681C114.227 100.232 113.137 100.717 112 100.717C110.863 100.717 109.773 100.232 108.97 99.3681C108.166 98.5043 107.714 97.3327 107.714 96.1111V85.6061ZM113.429 106.751C115.809 106.382 117.986 105.103 119.56 103.148C121.134 101.194 122 98.6959 122 96.1111C122 95.7039 121.849 95.3134 121.582 95.0255C121.314 94.7375 120.95 94.5758 120.571 94.5758C120.193 94.5758 119.829 94.7375 119.561 95.0255C119.293 95.3134 119.143 95.7039 119.143 96.1111C119.143 98.1471 118.39 100.1 117.051 101.539C115.711 102.979 113.894 103.788 112 103.788C110.106 103.788 108.289 102.979 106.949 101.539C105.61 100.1 104.857 98.1471 104.857 96.1111C104.857 95.7039 104.707 95.3134 104.439 95.0255C104.171 94.7375 103.807 94.5758 103.429 94.5758C103.05 94.5758 102.686 94.7375 102.418 95.0255C102.151 95.3134 102 95.7039 102 96.1111C102 98.6959 102.866 101.194 104.44 103.148C106.014 105.103 108.191 106.382 110.571 106.751V109.929H108.593C108.215 109.929 107.851 110.091 107.583 110.379C107.315 110.667 107.165 111.057 107.165 111.465C107.165 111.872 107.315 112.262 107.583 112.55C107.851 112.838 108.215 113 108.593 113H115.407C115.785 113 116.149 112.838 116.417 112.55C116.685 112.262 116.835 111.872 116.835 111.465C116.835 111.057 116.685 110.667 116.417 110.379C116.149 110.091 115.785 109.929 115.407 109.929H113.429V106.751Z" fill="white"/>
<defs>
<filter id="filter0_d_1_150" x="0" y="29" width="224" height="224" filterUnits="userSpaceOnUse" color-interpolation-filters="sRGB">
<feFlood flood-opacity="0" result="BackgroundImageFix"/>
<feColorMatrix in="SourceAlpha" type="matrix" values="0 0 0 0 0 0 0 0 0 0 0 0 0 0 0 0 0 0 127 0" result="hardAlpha"/>
<feOffset dy="44"/>
<feGaussianBlur stdDeviation="33"/>
<feColorMatrix type="matrix" values="0 0 0 0 0.691633 0 0 0 0 0.764753 0 0 0 0 0.824162 0 0 0 0.727846 0"/>
<feBlend mode="normal" in2="BackgroundImageFix" result="effect1_dropShadow_1_150"/>
<feBlend mode="normal" in="SourceGraphic" in2="effect1_dropShadow_1_150" result="shape"/>
</filter>
<linearGradient id="paint0_linear_1_150" x1="112" y1="44.1489" x2="152.604" y2="132.08" gradientUnits="userSpaceOnUse">
<stop stop-color="#FF6B59"/>
<stop offset="1" stop-color="#D35646"/>
</linearGradient>
</defs>
</svg>
